<svg width="242.83999633789062" height="168.39999961853027" viewBox="0 0 242.83999633789062 168.39999961853027" class="css-1j8o68f"><defs id="SvgjsDefs1502"><linearGradient id="SvgjsLinearGradient1509"><stop id="SvgjsStop1510" stop-color="#00ff8f" offset="0"></stop><stop id="SvgjsStop1511" stop-color="#00a1ff" offset="1"></stop></linearGradient><linearGradient id="SvgjsLinearGradient1512"><stop id="SvgjsStop1513" stop-color="#00ff8f" offset="0"></stop><stop id="SvgjsStop1514" stop-color="#00a1ff" offset="1"></stop></linearGradient></defs><g id="SvgjsG1503" featurekey="symbolFeature-0" transform="matrix(1.1574074891696144,0,0,1.1574074891696144,64.12962885288866,-7.870371147111338)" fill="url(#SvgjsLinearGradient1509)"><path xmlns="http://www.w3.org/2000/svg" d="M61.9,31.9H37.3c-3.3,0-5.9,2.6-5.9,5.9v24.6c0,3.3,2.6,5.9,5.9,5.9h24.6c3.3,0,5.9-2.6,5.9-5.9V37.8  C67.8,34.6,65.2,31.9,61.9,31.9z M49.6,59.1c-4.9,0-9-4-9-9s4-9,9-9s9,4,9,9S54.5,59.1,49.6,59.1z"></path><path xmlns="http://www.w3.org/2000/svg" d="M85.5,37.1c0-5.9-2.3-11.5-6.5-15.7c-4.2-4.2-9.8-6.5-15.7-6.5v3.7c4.9,0,9.6,1.9,13.1,5.4c3.5,3.5,5.4,8.1,5.4,13.1H85.5z"></path><path xmlns="http://www.w3.org/2000/svg" d="M84.4,16c-5.6-5.6-13.1-8.7-21.1-8.7V11c7,0,13.6,2.7,18.5,7.7c4.9,4.9,7.7,11.5,7.7,18.5h3.7C93.2,29.1,90.1,21.6,84.4,16z  "></path><path xmlns="http://www.w3.org/2000/svg" d="M63.3,21.9v3.7c3.1,0,5.9,1.2,8.1,3.4c2.2,2.2,3.4,5,3.4,8.1h3.7c0-4.1-1.6-7.9-4.4-10.7C71.2,23.5,67.4,21.9,63.3,21.9z"></path><path xmlns="http://www.w3.org/2000/svg" d="M14.5,62.9c0,5.9,2.3,11.5,6.5,15.7c4.2,4.2,9.8,6.5,15.7,6.5v-3.7c-4.9,0-9.6-1.9-13.1-5.4c-3.5-3.5-5.4-8.1-5.4-13.1H14.5  z"></path><path xmlns="http://www.w3.org/2000/svg" d="M15.6,84c5.6,5.6,13.1,8.7,21.1,8.7V89c-7,0-13.6-2.7-18.5-7.7c-4.9-4.9-7.7-11.5-7.7-18.5H6.8C6.8,70.9,9.9,78.4,15.6,84z"></path><path xmlns="http://www.w3.org/2000/svg" d="M36.7,78.1v-3.7c-3.1,0-5.9-1.2-8.1-3.4c-2.2-2.2-3.4-5-3.4-8.1h-3.7c0,4.1,1.6,7.9,4.4,10.7C28.8,76.5,32.6,78.1,36.7,78.1  z"></path><path xmlns="http://www.w3.org/2000/svg" d="M37.1,14.5c-5.9,0-11.5,2.3-15.7,6.5c-4.2,4.2-6.5,9.8-6.5,15.7h3.7c0-4.9,1.9-9.6,5.4-13.1c3.5-3.5,8.1-5.4,13.1-5.4V14.5z  "></path><path xmlns="http://www.w3.org/2000/svg" d="M16,15.6c-5.6,5.6-8.7,13.1-8.7,21.1H11c0-7,2.7-13.6,7.7-18.5c4.9-4.9,11.5-7.7,18.5-7.7V6.8C29.1,6.8,21.6,9.9,16,15.6z"></path><path xmlns="http://www.w3.org/2000/svg" d="M21.9,36.7h3.7c0-3.1,1.2-5.9,3.4-8.1c2.2-2.2,5-3.4,8.1-3.4v-3.7c-4.1,0-7.9,1.6-10.7,4.4C23.5,28.8,21.9,32.6,21.9,36.7z"></path><path xmlns="http://www.w3.org/2000/svg" d="M62.9,85.5c5.9,0,11.5-2.3,15.7-6.5c4.2-4.2,6.5-9.8,6.5-15.7h-3.7c0,4.9-1.9,9.6-5.4,13.1c-3.5,3.5-8.1,5.4-13.1,5.4V85.5z  "></path><path xmlns="http://www.w3.org/2000/svg" d="M84,84.4c5.6-5.6,8.7-13.1,8.7-21.1H89c0,7-2.7,13.6-7.7,18.5c-4.9,4.9-11.5,7.7-18.5,7.7v3.7C70.9,93.2,78.4,90.1,84,84.4z  "></path><path xmlns="http://www.w3.org/2000/svg" d="M78.1,63.3h-3.7c0,3.1-1.2,5.9-3.4,8.1c-2.2,2.2-5,3.4-8.1,3.4v3.7c4.1,0,7.9-1.6,10.7-4.4C76.5,71.2,78.1,67.4,78.1,63.3z"></path></g><g id="SvgjsG1504" featurekey="nameFeature-0" transform="matrix(0.6664888305458047,0,0,0.6664888305458047,21.760064249824293,112.32204773140468)" fill="#111111"><path d="M13.48 40.48 c-4.96 0 -9.68 -1.56 -13.12 -4.64 l4.32 -5.16 c2.76 2.2 5.84 3.36 9.08 3.36 c2.08 0 3.2 -0.72 3.2 -1.92 l0 -0.08 c0 -1.16 -0.92 -1.8 -4.72 -2.68 c-5.96 -1.36 -10.56 -3.04 -10.56 -8.8 l0 -0.08 c0 -5.2 4.12 -8.96 10.84 -8.96 c4.76 0 8.48 1.28 11.52 3.72 l-3.88 5.48 c-2.56 -1.8 -5.36 -2.76 -7.84 -2.76 c-1.88 0 -2.8 0.8 -2.8 1.8 l0 0.08 c0 1.28 0.96 1.84 4.84 2.72 c6.44 1.4 10.44 3.48 10.44 8.72 l0 0.08 c0 5.72 -4.52 9.12 -11.32 9.12 z M38.84 40.52 c-6.8 0 -11.6 -4.52 -11.6 -11.24 l0 -0.08 c0 -6.32 4.52 -11.32 10.92 -11.32 c7.48 0 10.92 5.48 10.92 11.84 c0 0.48 0 1.04 -0.04 1.56 l-14.48 0 c0.6 2.36 2.32 3.56 4.68 3.56 c1.8 0 3.24 -0.68 4.8 -2.2 l4.2 3.48 c-2.08 2.64 -5.08 4.4 -9.4 4.4 z M34.44 27.4 l7.52 0 c-0.28 -2.4 -1.68 -3.92 -3.76 -3.92 c-2 0 -3.36 1.56 -3.76 3.92 z M52.32 40 l0 -21.64 l7.6 0 l0 3.04 c1.4 -1.8 3.4 -3.52 6.48 -3.52 c4.6 0 7.36 3.04 7.36 7.96 l0 14.16 l-7.6 0 l0 -11.72 c0 -2.36 -1.24 -3.64 -3.04 -3.64 c-1.84 0 -3.2 1.28 -3.2 3.64 l0 11.72 l-7.6 0 z M86.28 40.48 c-3.64 0 -7.24 -1.04 -10.24 -3.2 l2.84 -4.6 c2.48 1.64 5.2 2.48 7.44 2.48 c1.32 0 1.92 -0.4 1.92 -1.16 l0 -0.08 c0 -0.84 -1.2 -1.2 -3.48 -1.84 c-4.28 -1.12 -7.68 -2.56 -7.68 -6.92 l0 -0.08 c0 -4.6 3.68 -7.16 8.68 -7.16 c3.16 0 6.44 0.92 8.92 2.52 l-2.6 4.8 c-2.24 -1.24 -4.68 -2 -6.4 -2 c-1.16 0 -1.76 0.44 -1.76 1.04 l0 0.08 c0 0.84 1.24 1.24 3.52 1.92 c4.28 1.2 7.68 2.68 7.68 6.88 l0 0.08 c0 4.76 -3.56 7.24 -8.84 7.24 z M108.96000000000001 40.52 c-6.8 0 -11.6 -4.52 -11.6 -11.24 l0 -0.08 c0 -6.32 4.52 -11.32 10.92 -11.32 c7.48 0 10.92 5.48 10.92 11.84 c0 0.48 0 1.04 -0.04 1.56 l-14.48 0 c0.6 2.36 2.32 3.56 4.68 3.56 c1.8 0 3.24 -0.68 4.8 -2.2 l4.2 3.48 c-2.08 2.64 -5.08 4.4 -9.4 4.4 z M104.56 27.4 l7.52 0 c-0.28 -2.4 -1.68 -3.92 -3.76 -3.92 c-2 0 -3.36 1.56 -3.76 3.92 z M133.88 40.48 c-4.96 0 -9.68 -1.56 -13.12 -4.64 l4.32 -5.16 c2.76 2.2 5.84 3.36 9.08 3.36 c2.08 0 3.2 -0.72 3.2 -1.92 l0 -0.08 c0 -1.16 -0.92 -1.8 -4.72 -2.68 c-5.96 -1.36 -10.56 -3.04 -10.56 -8.8 l0 -0.08 c0 -5.2 4.12 -8.96 10.84 -8.96 c4.76 0 8.48 1.28 11.52 3.72 l-3.88 5.48 c-2.56 -1.8 -5.36 -2.76 -7.84 -2.76 c-1.88 0 -2.8 0.8 -2.8 1.8 l0 0.08 c0 1.28 0.96 1.84 4.84 2.72 c6.44 1.4 10.44 3.48 10.44 8.72 l0 0.08 c0 5.72 -4.52 9.12 -11.32 9.12 z M159.24 40.52 c-6.8 0 -11.6 -4.52 -11.6 -11.24 l0 -0.08 c0 -6.32 4.52 -11.32 10.92 -11.32 c7.48 0 10.92 5.48 10.92 11.84 c0 0.48 0 1.04 -0.04 1.56 l-14.48 0 c0.6 2.36 2.32 3.56 4.68 3.56 c1.8 0 3.24 -0.68 4.8 -2.2 l4.2 3.48 c-2.08 2.64 -5.08 4.4 -9.4 4.4 z M154.84000000000003 27.4 l7.52 0 c-0.28 -2.4 -1.68 -3.92 -3.76 -3.92 c-2 0 -3.36 1.56 -3.76 3.92 z M183.44 40.52 c-6.8 0 -11.6 -4.52 -11.6 -11.24 l0 -0.08 c0 -6.32 4.52 -11.32 10.92 -11.32 c7.48 0 10.92 5.48 10.92 11.84 c0 0.48 0 1.04 -0.04 1.56 l-14.48 0 c0.6 2.36 2.32 3.56 4.68 3.56 c1.8 0 3.24 -0.68 4.8 -2.2 l4.2 3.48 c-2.08 2.64 -5.08 4.4 -9.4 4.4 z M179.04000000000002 27.4 l7.52 0 c-0.28 -2.4 -1.68 -3.92 -3.76 -3.92 c-2 0 -3.36 1.56 -3.76 3.92 z M204.84 40.2 l-9.36 -28.2 l8.2 0 l4.88 16.2 l5.4 -16.28 l6.68 0 l5.4 16.28 l4.88 -16.2 l8.04 0 l-9.36 28.2 l-6.76 0 l-5.64 -16.12 l-5.6 16.12 l-6.76 0 z M245 40.48 c-4.12 0 -7.28 -2.36 -7.28 -6.68 l0 -0.08 c0 -4.48 3.4 -6.8 8.48 -6.8 c2 0 3.96 0.4 5.2 0.84 l0 -0.36 c0 -2.24 -1.4 -3.52 -4.32 -3.52 c-2.28 0 -4.04 0.44 -5.96 1.2 l-1.56 -5.36 c2.44 -1 5.04 -1.68 8.76 -1.68 c3.88 0 6.52 0.92 8.24 2.64 c1.64 1.6 2.32 3.84 2.32 6.88 l0 12.44 l-7.52 0 l0 -2.24 c-1.48 1.64 -3.52 2.72 -6.36 2.72 z M247.72 35.72 c2.2 0 3.76 -1.4 3.76 -3.56 l0 -1 c-0.76 -0.32 -1.84 -0.56 -2.96 -0.56 c-2.2 0 -3.48 1.08 -3.48 2.68 l0 0.08 c0 1.48 1.12 2.36 2.68 2.36 z M262.76 40 l0 -21.64 l7.6 0 l0 4.36 c1.24 -2.96 3.24 -4.88 6.84 -4.72 l0 8 l-0.64 0 c-3.96 0 -6.2 2.28 -6.2 7.28 l0 6.72 l-7.6 0 z M290.2 40.52 c-6.8 0 -11.6 -4.52 -11.6 -11.24 l0 -0.08 c0 -6.32 4.52 -11.32 10.92 -11.32 c7.48 0 10.92 5.48 10.92 11.84 c0 0.48 0 1.04 -0.04 1.56 l-14.48 0 c0.6 2.36 2.32 3.56 4.68 3.56 c1.8 0 3.24 -0.68 4.8 -2.2 l4.2 3.48 c-2.08 2.64 -5.08 4.4 -9.4 4.4 z M285.8 27.4 l7.52 0 c-0.28 -2.4 -1.68 -3.92 -3.76 -3.92 c-2 0 -3.36 1.56 -3.76 3.92 z"></path></g><g id="SvgjsG1505" featurekey="sloganFeature-0" transform="matrix(1,0,0,1,-1.700000286102295,148.19999933242798)" fill="url(#SvgjsLinearGradient1512)"><path d="M3.5 18.28 l5.92 0 l-0.12 1.72 l-7.6 0 l0 -14 l1.8 0 l0 12.28 z M11.6 20 l0 -14 l1.8 0 l0 14 l-1.8 0 z M15.58 6 l1.96 0 l4.24 10.24 l4.26 -10.24 l1.96 0 l-6.1 14.2 l-0.22 0 z M38.6 18.28 l0.12 1.72 l-8.52 0 l0 -14 l8.12 0 l0.14 1.72 l-6.46 0 l0 3.42 l4.38 0 l0 1.72 l-4.38 0 l0 5.42 l6.6 0 z M49.96000000000001 18.28 l5.92 0 l-0.12 1.72 l-7.6 0 l0 -14 l1.8 0 l0 12.28 z M58.06000000000001 20 l0 -14 l1.8 0 l0 14 l-1.8 0 z M65.04 7.720000000000001 l0 4.32 l4.28 0 l0 1.72 l-4.28 0 l0 6.24 l-1.8 0 l0 -14 l7.96 0 l0.12 1.72 l-6.28 0 z M82.3 18.28 l0.12 1.72 l-8.52 0 l0 -14 l8.12 0 l0.14 1.72 l-6.46 0 l0 3.42 l4.38 0 l0 1.72 l-4.38 0 l0 5.42 l6.6 0 z M100.60000000000001 7.720000000000001 l-4.08 0 l0 12.28 l-1.8 0 l0 -12.28 l-4.1 0 l0.12 -1.72 l9.74 0 z M109.4 20.2 c-4 0 -7.18 -3.2 -7.18 -7.2 s3.18 -7.2 7.18 -7.2 s7.18 3.2 7.18 7.2 s-3.18 7.2 -7.18 7.2 z M109.4 18.48 c3.04 0 5.32 -2.38 5.32 -5.48 s-2.28 -5.48 -5.32 -5.48 c-3.06 0 -5.34 2.38 -5.34 5.48 s2.28 5.48 5.34 5.48 z M135.00000000000003 7.720000000000001 l-4.08 0 l0 12.28 l-1.8 0 l0 -12.28 l-4.1 0 l0.12 -1.72 l9.74 0 z M145.92000000000002 6 l1.8 0 l0 14 l-1.8 0 l0 -6.44 l-6.94 0 l0 6.44 l-1.8 0 l0 -14 l1.8 0 l0 5.84 l6.94 0 l0 -5.84 z M159.5 18.28 l0.12 1.72 l-8.52 0 l0 -14 l8.12 0 l0.14 1.72 l-6.46 0 l0 3.42 l4.38 0 l0 1.72 l-4.38 0 l0 5.42 l6.6 0 z M170.86 7.720000000000001 l0 4.32 l4.28 0 l0 1.72 l-4.28 0 l0 6.24 l-1.8 0 l0 -14 l7.96 0 l0.12 1.72 l-6.28 0 z M179.58 14.46 l0 -8.46 l1.8 0 l0 8.32 c0 2.7 1.56 4.08 3.76 4.08 s3.78 -1.38 3.78 -4.08 l0 -8.32 l1.78 0 l0 8.46 c0 3.64 -2.08 5.74 -5.56 5.74 c-3.46 0 -5.56 -2.1 -5.56 -5.74 z M195.76000000000002 18.28 l5.92 0 l-0.12 1.72 l-7.6 0 l0 -14 l1.8 0 l0 12.28 z M205.66000000000003 18.28 l5.92 0 l-0.12 1.72 l-7.6 0 l0 -14 l1.8 0 l0 12.28 z M222.16000000000003 18.28 l0.12 1.72 l-8.52 0 l0 -14 l8.12 0 l0.14 1.72 l-6.46 0 l0 3.42 l4.38 0 l0 1.72 l-4.38 0 l0 5.42 l6.6 0 z M224.10000000000002 18.54 c0.88 0.82 2.7 1.66 4.52 1.66 c2.8 0 4.58 -1.44 4.58 -3.7 c0 -1.84 -0.88 -2.92 -3.92 -4.64 c-2.32 -1.34 -2.88 -1.78 -2.88 -2.66 c0 -0.94 0.88 -1.68 2.36 -1.68 c0.86 0 2 0.38 2.66 0.8 l0.96 -1.44 c-0.94 -0.62 -2.42 -1.08 -3.6 -1.08 c-2.58 0 -4.3 1.48 -4.3 3.42 c0 1.72 0.86 2.58 3.5 4.02 c2.34 1.28 3.3 2.22 3.3 3.24 c0 1.2 -1.04 1.92 -2.66 1.92 c-1.4 0 -2.8 -0.66 -3.5 -1.3 z M244.54000000000002 7.720000000000001 l-4.08 0 l0 12.28 l-1.8 0 l0 -12.28 l-4.1 0 l0.12 -1.72 l9.74 0 z"></path></g></svg>